<svg width="24" height="24" viewBox="0 0 24 24" fill="none" xmlns="http://www.w3.org/2000/svg">
<path fill-rule="evenodd" clip-rule="evenodd" d="M8 1.25C8.41421 1.25 8.75 1.58579 8.75 2V3.25H15.25V2C15.25 1.58579 15.5858 1.25 16 1.25C16.4142 1.25 16.75 1.58579 16.75 2V3.25047C17.3296 3.25212 17.8183 3.2596 18.2315 3.29336C18.7781 3.33803 19.2582 3.43238 19.7025 3.65873C20.4081 4.01825 20.9817 4.59193 21.3413 5.29754C21.5676 5.74175 21.662 6.22189 21.7066 6.76853C21.75 7.29944 21.75 7.95505 21.75 8.76788V17.2321C21.75 18.045 21.75 18.7006 21.7066 19.2315C21.662 19.7781 21.5676 20.2582 21.3413 20.7025C20.9817 21.4081 20.4081 21.9817 19.7025 22.3413C19.2582 22.5676 18.7781 22.662 18.2315 22.7066C17.7006 22.75 17.045 22.75 16.2321 22.75H7.76788C6.95505 22.75 6.29944 22.75 5.76853 22.7066C5.2219 22.662 4.74175 22.5676 4.29754 22.3413C3.59193 21.9817 3.01825 21.4081 2.65873 20.7025C2.43239 20.2582 2.33803 19.7781 2.29336 19.2315C2.24999 18.7006 2.24999 18.0449 2.25 17.2321V8.76789C2.24999 7.95506 2.24999 7.29944 2.29336 6.76853C2.33803 6.22189 2.43239 5.74175 2.65873 5.29754C3.01825 4.59193 3.59193 4.01825 4.29754 3.65873C4.74175 3.43238 5.2219 3.33803 5.76853 3.29336C6.18171 3.2596 6.67043 3.25212 7.25 3.25047V2C7.25 1.58579 7.58579 1.25 8 1.25ZM7.25 4.75054C6.68053 4.75225 6.24665 4.7593 5.89068 4.78838C5.4368 4.82546 5.17604 4.8946 4.97852 4.99524C4.55516 5.21095 4.21095 5.55516 3.99524 5.97852C3.8946 6.17604 3.82547 6.4368 3.78838 6.89068C3.75058 7.35331 3.75 7.94755 3.75 8.8V9.25H20.25V8.8C20.25 7.94755 20.2494 7.35331 20.2116 6.89068C20.1745 6.4368 20.1054 6.17604 20.0048 5.97852C19.789 5.55516 19.4448 5.21095 19.0215 4.99524C18.824 4.8946 18.5632 4.82546 18.1093 4.78838C17.7534 4.7593 17.3195 4.75225 16.75 4.75054V6C16.75 6.41421 16.4142 6.75 16 6.75C15.5858 6.75 15.25 6.41421 15.25 6V4.75H8.75V6C8.75 6.41421 8.41421 6.75 8 6.75C7.58579 6.75 7.25 6.41421 7.25 6V4.75054ZM20.25 10.75H3.75V17.2C3.75 18.0525 3.75058 18.6467 3.78838 19.1093C3.82547 19.5632 3.8946 19.824 3.99524 20.0215C4.21095 20.4448 4.55516 20.789 4.97852 21.0048C5.17604 21.1054 5.4368 21.1745 5.89068 21.2116C6.35331 21.2494 6.94755 21.25 7.8 21.25H16.2C17.0525 21.25 17.6467 21.2494 18.1093 21.2116C18.5632 21.1745 18.824 21.1054 19.0215 21.0048C19.4448 20.789 19.789 20.4448 20.0048 20.0215C20.1054 19.824 20.1745 19.5632 20.2116 19.1093C20.2494 18.6467 20.25 18.0525 20.25 17.2V10.75Z" fill="#939393"/>
<path d="M13.29 13.876C12.9454 14.1057 12.8523 14.5714 13.082 14.916C13.3118 15.2607 13.7774 15.3538 14.1221 15.124L13.29 13.876ZM15.2061 13.5H15.9561C15.9561 13.2234 15.8038 12.9693 15.5599 12.8387C15.3161 12.7082 15.0202 12.7225 14.79 12.876L15.2061 13.5ZM14.4561 18.5C14.4561 18.9142 14.7918 19.25 15.2061 19.25C15.6203 19.25 15.9561 18.9142 15.9561 18.5H14.4561ZM13.9561 17.75C13.5418 17.75 13.2061 18.0858 13.2061 18.5C13.2061 18.9142 13.5418 19.25 13.9561 19.25V17.75ZM16.4561 19.25C16.8703 19.25 17.2061 18.9142 17.2061 18.5C17.2061 18.0858 16.8703 17.75 16.4561 17.75V19.25ZM14.1221 15.124L15.6221 14.124L14.79 12.876L13.29 13.876L14.1221 15.124ZM14.4561 13.5V18.5H15.9561V13.5H14.4561ZM13.9561 19.25H16.4561V17.75H13.9561V19.25Z" fill="#939393"/>
<path fill-rule="evenodd" clip-rule="evenodd" d="M8.63502 14.3204C8.40575 14.4553 8.15389 14.6035 7.87 14.5008C7.43943 14.3505 7.58295 13.8037 7.86316 13.5508C8.29296 13.1843 8.84309 12.9895 9.40779 13.0041C9.66157 12.9873 9.9161 13.0225 10.1559 13.1073C10.3956 13.1922 10.6156 13.325 10.8023 13.4977C10.9891 13.6704 11.1387 13.8793 11.242 14.1117C11.3454 14.3441 11.4003 14.5951 11.4035 14.8494C11.4167 15.1675 11.3249 15.4811 11.142 15.7418C11.0469 15.8774 10.93 15.9947 10.7969 16.0896C10.941 16.1859 11.0675 16.3079 11.1697 16.4507C11.3565 16.7117 11.4513 17.0274 11.4393 17.3481C11.4337 17.6065 11.3752 17.861 11.2675 18.0959C11.1598 18.3308 11.0052 18.5412 10.8131 18.714C10.621 18.8869 10.3956 19.0186 10.1506 19.1011C9.90571 19.1835 9.6465 19.215 9.38897 19.1935C8.81594 19.2083 8.25712 19.014 7.81701 18.6467C7.5368 18.387 7.38644 17.847 7.83069 17.6898C8.11713 17.5944 8.3671 17.7386 8.5988 17.8722C8.63246 17.8916 8.66574 17.9108 8.69868 17.9291C8.88407 18.0617 9.10351 18.1386 9.33115 18.1507C9.5588 18.1628 9.78516 18.1096 9.98358 17.9974C10.0795 17.9354 10.1584 17.8504 10.213 17.7501C10.2676 17.6499 10.2962 17.5375 10.2962 17.4233C10.2962 17.3091 10.2676 17.1967 10.213 17.0964C10.1584 16.9962 10.0795 16.9111 9.98358 16.8492C9.8038 16.7448 9.58836 16.7118 9.37533 16.6791C9.08624 16.6348 8.8016 16.5911 8.61666 16.3708C8.5634 16.3066 8.53095 16.2278 8.52362 16.1448C8.51755 16.076 8.52898 16.0069 8.55655 15.9441C8.573 15.899 8.59732 15.8569 8.62864 15.8199C8.82358 15.6055 9.10748 15.5623 9.39153 15.5191C9.60543 15.4866 9.81941 15.454 9.99556 15.3483C10.0915 15.2864 10.1704 15.2014 10.225 15.1011C10.2796 15.0008 10.3082 14.8884 10.3082 14.7742C10.3082 14.66 10.2796 14.5476 10.225 14.4474C10.1704 14.3471 10.0915 14.2621 9.99556 14.2001C9.79947 14.0882 9.57532 14.0352 9.34988 14.0473C9.12445 14.0594 8.90729 14.1362 8.72433 14.2685C8.69493 14.2851 8.66517 14.3027 8.63502 14.3204Z" fill="#939393"/>
<path d="M7.87 14.5008L7.92103 14.3598L7.91946 14.3592L7.87 14.5008ZM8.63502 14.3204L8.55894 14.1911L8.55894 14.1911L8.63502 14.3204ZM7.86316 13.5508L7.76579 13.4366L7.76267 13.4395L7.86316 13.5508ZM9.40779 13.0041L9.40391 13.1546L9.41765 13.1537L9.40779 13.0041ZM10.1559 13.1073L10.1058 13.2487L10.1559 13.1073ZM10.8023 13.4977L10.9042 13.3876L10.8023 13.4977ZM11.242 14.1117L11.3791 14.0507L11.3791 14.0507L11.242 14.1117ZM11.4035 14.8494L11.2534 14.8513L11.2536 14.8556L11.4035 14.8494ZM11.142 15.7418L11.2648 15.8279V15.8279L11.142 15.7418ZM10.7969 16.0896L10.7098 15.9674L10.533 16.0935L10.7135 16.2143L10.7969 16.0896ZM11.1697 16.4507L11.0477 16.538L11.1697 16.4507ZM11.4393 17.3481L11.2894 17.3425L11.2894 17.3448L11.4393 17.3481ZM11.2675 18.0959L11.1312 18.0334L11.2675 18.0959ZM10.8131 18.714L10.9134 18.8255L10.8131 18.714ZM9.38897 19.1935L9.40146 19.044L9.39328 19.0433L9.38508 19.0435L9.38897 19.1935ZM7.81701 18.6467L7.71491 18.7568L7.72091 18.7619L7.81701 18.6467ZM7.83069 17.6898L7.78324 17.5475L7.78065 17.5484L7.83069 17.6898ZM8.5988 17.8722L8.67376 17.7423H8.67376L8.5988 17.8722ZM8.69868 17.9291L8.78597 17.8071L8.77887 17.802L8.77123 17.7978L8.69868 17.9291ZM9.33115 18.1507L9.33912 18.0009H9.33912L9.33115 18.1507ZM9.98358 17.9974L10.0576 18.1282L10.065 18.1234L9.98358 17.9974ZM10.213 17.7501L10.3447 17.8219L10.3447 17.8219L10.213 17.7501ZM10.213 17.0964L10.3447 17.0247L10.3447 17.0247L10.213 17.0964ZM9.98358 16.8492L10.0651 16.723L10.0589 16.7195L9.98358 16.8492ZM9.37533 16.6791L9.3526 16.8274L9.37533 16.6791ZM8.61666 16.3708L8.50127 16.4666L8.50176 16.4672L8.61666 16.3708ZM8.52362 16.1448L8.3742 16.158L8.52362 16.1448ZM8.55655 15.9441L8.6942 16.0044L8.69745 15.9955L8.55655 15.9441ZM8.62864 15.8199L8.51758 15.7189L8.51411 15.723L8.62864 15.8199ZM9.39153 15.5191L9.36898 15.3708H9.36898L9.39153 15.5191ZM9.99556 15.3483L10.0728 15.477L10.0769 15.4743L9.99556 15.3483ZM10.225 14.4474L10.0932 14.5191L10.225 14.4474ZM9.99556 14.2001L10.0771 14.0739L10.0699 14.0698L9.99556 14.2001ZM9.34988 14.0473L9.34183 13.8975H9.34183L9.34988 14.0473ZM8.72433 14.2685L8.79837 14.3989L8.80553 14.3948L8.8122 14.39L8.72433 14.2685ZM7.81898 14.6419C8.17959 14.7723 8.49471 14.577 8.71109 14.4497L8.55894 14.1911C8.31679 14.3336 8.12819 14.4347 7.92102 14.3598L7.81898 14.6419ZM7.76267 13.4395C7.59676 13.5892 7.47143 13.8231 7.45066 14.0506C7.44008 14.1664 7.45602 14.2888 7.51697 14.3978C7.57924 14.5091 7.68167 14.5939 7.82055 14.6424L7.91946 14.3592C7.84305 14.3325 7.80195 14.2927 7.77879 14.2513C7.7543 14.2075 7.7429 14.1492 7.74941 14.0779C7.76281 13.9312 7.84935 13.7653 7.96366 13.6622L7.76267 13.4395ZM9.41164 12.8541C8.80996 12.8386 8.22378 13.0461 7.76583 13.4367L7.9605 13.665C8.36214 13.3224 8.87623 13.1404 9.40393 13.154L9.41164 12.8541ZM10.2059 12.9659C9.94695 12.8743 9.67203 12.8363 9.39792 12.8544L9.41765 13.1537C9.65111 13.1383 9.88525 13.1707 10.1058 13.2487L10.2059 12.9659ZM10.9042 13.3876C10.7025 13.2011 10.4649 13.0576 10.2059 12.9659L10.1058 13.2487C10.3264 13.3268 10.5287 13.449 10.7005 13.6078L10.9042 13.3876ZM11.3791 14.0507C11.2674 13.7997 11.1059 13.5741 10.9042 13.3876L10.7005 13.6078C10.8723 13.7667 11.0099 13.9589 11.105 14.1726L11.3791 14.0507ZM11.5535 14.8475C11.5501 14.5728 11.4907 14.3017 11.3791 14.0507L11.105 14.1726C11.2 14.3864 11.2506 14.6173 11.2535 14.8513L11.5535 14.8475ZM11.2648 15.8279C11.4666 15.5403 11.568 15.1942 11.5534 14.8431L11.2536 14.8556C11.2655 15.1408 11.1831 15.422 11.0192 15.6557L11.2648 15.8279ZM10.884 16.2117C11.0308 16.107 11.1599 15.9775 11.2648 15.8279L11.0192 15.6557C10.934 15.7772 10.8291 15.8824 10.7098 15.9674L10.884 16.2117ZM10.7135 16.2143C10.8427 16.3006 10.9561 16.41 11.0477 16.538L11.2917 16.3634C11.1789 16.2059 11.0392 16.0712 10.8803 15.9649L10.7135 16.2143ZM11.0477 16.538C11.2152 16.772 11.3002 17.055 11.2894 17.3425L11.5892 17.3537C11.6025 16.9998 11.4978 16.6515 11.2917 16.3634L11.0477 16.538ZM11.2894 17.3448C11.2842 17.5827 11.2304 17.8171 11.1312 18.0334L11.4039 18.1584C11.5201 17.9049 11.5832 17.6302 11.5893 17.3514L11.2894 17.3448ZM11.1312 18.0334C11.032 18.2497 10.8896 18.4434 10.7127 18.6025L10.9134 18.8255C11.1207 18.639 11.2877 18.4119 11.4039 18.1584L11.1312 18.0334ZM10.7127 18.6025C10.5359 18.7617 10.3283 18.883 10.1028 18.9589L10.1985 19.2432C10.4628 19.1543 10.7061 19.0121 10.9134 18.8255L10.7127 18.6025ZM10.1028 18.9589C9.87726 19.0348 9.63858 19.0638 9.40146 19.044L9.37648 19.3429C9.65441 19.3662 9.93416 19.3322 10.1985 19.2432L10.1028 18.9589ZM9.38508 19.0435C8.8485 19.0574 8.32523 18.8754 7.91312 18.5315L7.72091 18.7619C8.18901 19.1525 8.78338 19.3592 9.39286 19.3434L9.38508 19.0435ZM7.91898 18.5367C7.80247 18.4287 7.71486 18.2618 7.70155 18.1162C7.6951 18.0455 7.70667 17.9877 7.73187 17.9437C7.75596 17.9017 7.79936 17.86 7.88072 17.8312L7.78065 17.5484C7.63989 17.5982 7.53549 17.683 7.47158 17.7946C7.40879 17.9041 7.39216 18.027 7.4028 18.1435C7.42367 18.372 7.55134 18.605 7.71505 18.7567L7.91898 18.5367ZM7.87812 17.8321C8.09071 17.7613 8.28051 17.8618 8.52384 18.0022L8.67376 17.7423C8.4537 17.6153 8.14355 17.4274 7.78325 17.5475L7.87812 17.8321ZM8.52384 18.0022C8.55728 18.0214 8.59177 18.0413 8.62613 18.0603L8.77123 17.7978C8.73971 17.7803 8.70764 17.7618 8.67376 17.7423L8.52384 18.0022ZM8.61139 18.051C8.82003 18.2003 9.06699 18.2869 9.32319 18.3005L9.33912 18.0009C9.14003 17.9904 8.94811 17.9231 8.78597 17.8071L8.61139 18.051ZM9.32319 18.3005C9.57938 18.3142 9.83413 18.2543 10.0574 18.128L9.90972 17.8668C9.73619 17.965 9.53821 18.0115 9.33912 18.0009L9.32319 18.3005ZM10.065 18.1234C10.1819 18.0478 10.2781 17.9442 10.3447 17.8219L10.0812 17.6784C10.0386 17.7567 9.97706 17.823 9.90219 17.8714L10.065 18.1234ZM10.3447 17.8219C10.4113 17.6996 10.4462 17.5625 10.4462 17.4233H10.1462C10.1462 17.5124 10.1239 17.6001 10.0812 17.6784L10.3447 17.8219ZM10.4462 17.4233C10.4462 17.284 10.4113 17.147 10.3447 17.0247L10.0812 17.1682C10.1239 17.2465 10.1462 17.3342 10.1462 17.4233H10.4462ZM10.3447 17.0247C10.2781 16.9024 10.1819 16.7987 10.065 16.7232L9.90219 16.9752C9.97706 17.0235 10.0386 17.0899 10.0812 17.1682L10.3447 17.0247ZM10.0589 16.7195C9.85021 16.5983 9.60504 16.5626 9.39807 16.5308L9.3526 16.8274C9.57167 16.861 9.7574 16.8913 9.90826 16.9789L10.0589 16.7195ZM9.39807 16.5308C9.09592 16.4845 8.87391 16.4439 8.73156 16.2743L8.50176 16.4672C8.7293 16.7383 9.07655 16.785 9.3526 16.8274L9.39807 16.5308ZM8.73205 16.2749C8.69827 16.2343 8.67769 16.1843 8.67304 16.1316L8.3742 16.158C8.38421 16.2714 8.42853 16.379 8.50127 16.4666L8.73205 16.2749ZM8.67304 16.1316C8.66919 16.0879 8.67644 16.0442 8.69393 16.0043L8.41918 15.8838C8.38153 15.9697 8.36591 16.064 8.3742 16.158L8.67304 16.1316ZM8.51411 15.723C8.47132 15.7736 8.43811 15.8311 8.41565 15.8926L8.69745 15.9955C8.70789 15.9669 8.72331 15.9403 8.74318 15.9168L8.51411 15.723ZM9.36898 15.3708C9.09627 15.4123 8.75443 15.4585 8.51765 15.719L8.73963 15.9208C8.89273 15.7524 9.11869 15.7123 9.41409 15.6674L9.36898 15.3708ZM9.91839 15.2197C9.77219 15.3074 9.58941 15.3373 9.36898 15.3708L9.41409 15.6674C9.62144 15.6358 9.86663 15.6006 10.0727 15.4769L9.91839 15.2197ZM10.0932 15.0293C10.0506 15.1076 9.98904 15.174 9.91417 15.2223L10.0769 15.4743C10.1939 15.3988 10.2901 15.2951 10.3567 15.1728L10.0932 15.0293ZM10.1582 14.7742C10.1582 14.8633 10.1358 14.9511 10.0932 15.0293L10.3567 15.1728C10.4233 15.0505 10.4582 14.9135 10.4582 14.7742H10.1582ZM10.0932 14.5191C10.1359 14.5974 10.1582 14.6851 10.1582 14.7742H10.4582C10.4582 14.635 10.4233 14.4979 10.3567 14.3756L10.0932 14.5191ZM9.91417 14.3261C9.98904 14.3745 10.0506 14.4408 10.0932 14.5191L10.3567 14.3756C10.2901 14.2533 10.1939 14.1497 10.0769 14.0741L9.91417 14.3261ZM9.35794 14.1971C9.55461 14.1865 9.75016 14.2328 9.92123 14.3304L10.0699 14.0698C9.84879 13.9437 9.59603 13.8839 9.34183 13.8975L9.35794 14.1971ZM8.8122 14.39C8.97182 14.2746 9.16127 14.2077 9.35794 14.1971L9.34183 13.8975C9.08763 13.9112 8.84276 13.9978 8.63645 14.1469L8.8122 14.39ZM8.71109 14.4497C8.74143 14.4318 8.77017 14.4149 8.79837 14.3989L8.65029 14.138C8.6197 14.1554 8.58891 14.1735 8.55894 14.1911L8.71109 14.4497Z" fill="#939393"/>
</svg>
